#!OML:ASF H:\Terrain\Patient Classification 1\Animal1\Tuesday\Animal1.ASF
:FULLY-SPECIFIED
:DEGREES
3681
root 11.5144 17.1006 2.73504 -869.339 75.2669 192.299
lowerback 11.5387 -3.4617 -5.99411
upperback -4.52461 -5.97159 -5.38298
thorax -11.4315 -2.54373 -1.26866
lowerneck 5.00874 -0.525633 -10.3555
upperneck -8.91885 2.04818 29.4478
head -3.82006 0.485092 11.3905
rclavicle 3.18055e-015 -3.18055e-014
rhumerus -27.2979 -1.01763 -1.24053
rradius 33.4882
rwrist -10.9507
rhand 18.0983 16.9172
rfingers 7.12502
rthumb 42.7595 -7.41314
lclavicle 3.18055e-015 -3.18055e-014
lhumerus -22.9028 33.3142 11.9153
lradius 71.8689
lwrist -40.6148
lhand 17.8252 32.8051
lfingers 7.12502
lthumb 42.504 57.224
rfemur -42.6324 13.3259 25.5275
rtibia 47.1778
rfoot 8.25989 9.86589
rtoes -12.262
lfemur -44.7703 -19.1746 -0.278598
ltibia 38.8152
lfoot 0.660245 -12.8296
ltoes 32.8374
3682
root 11.5093 17.108 2.65239 -868.348 76.3304 193.559
lowerback 11.7633 -3.46826 -5.77227
upperback -4.41561 -5.96959 -5.43328
thorax -11.4708 -2.56344 -1.43338
lowerneck 4.89502 -0.576809 -10.3445
upperneck -8.86405 1.99644 29.7004
head -3.77415 0.463657 11.4875
rclavicle -4.53229e-014 0
rhumerus -27.2253 -1.33543 -1.31516
rradius 33.6651
rwrist -10.3876
rhand 18.3132 17.2317
rfingers 7.12502
rthumb 42.9606 -7.02813
lclavicle -4.53229e-014 0
lhumerus -22.6742 33.1011 11.8511
lradius 72.1414
lwrist -40.1469
lhand 17.7611 32.8596
lfingers 7.12502
lthumb 42.4439 57.2992
rfemur -42.4365 13.693 25.1433
rtibia 47.3082
rfoot 8.7465 9.92013
rtoes -9.89697
lfemur -44.6322 -21.0019 1.11663
ltibia 37.8754
lfoot 0.488633 -13.9385
ltoes 29.4667
3683
root 11.506 17.1131 2.57133 -867.012 77.4426 195.152
lowerback 11.9825 -3.44659 -5.61169
upperback -4.35461 -5.94244 -5.50714
thorax -11.5586 -2.56493 -1.59626
lowerneck 4.87751 -0.650276 -10.2062
upperneck -8.77604 1.88926 29.8055
head -3.72329 0.40709 11.5015
rclavicle -4.6118e-014 -5.40694e-014
rhumerus -27.2212 -2.22588 -1.36157
rradius 33.9683
rwrist -9.32624
rhand 18.9713 17.2434
rfingers 7.12502
rthumb 43.5756 -6.79593
lclavicle -4.6118e-014 -5.40694e-014
lhumerus -22.358 33.1856 12.0635
lradius 72.3545
lwrist -40.2519
lhand 17.7079 33.0514
lfingers 7.12502
lthumb 42.3941 57.508
rfemur -42.2432 14.0509 24.8395
rtibia 47.4254
rfoot 8.83734 10.1273
rtoes -8.99392
lfemur -44.5183 -22.5688 2.38566
ltibia 37.1005
lfoot 0.799098 -14.8943
ltoes 28.2562
3684
root 11.5062 17.1144 2.49349 -865.173 78.574 197.122
lowerback 12.0179 -3.46508 -5.61902
upperback -4.35984 -5.97446 -5.48311
thorax -11.5822 -2.57959 -1.55678
lowerneck 4.97446 -0.648726 -10.0925
upperneck -8.61612 1.84619 29.8042
head -3.68817 0.377476 11.4744
rclavicle 4.37326e-014 3.18055e-015
rhumerus -27.0015 -2.60358 -1.56452
rradius 34.3975
rwrist -9.06648
rhand 18.9475 16.7585
rfingers 7.12502
rthumb 43.5534 -7.28894
lclavicle 4.37326e-014 3.18055e-015
lhumerus -22.2785 33.1603 12.0105
lradius 72.6273
lwrist -40.2784
lhand 17.9934 33.3604
lfingers 7.12502
lthumb 42.6614 57.7249
rfemur -42.2276 14.3405 24.6156
rtibia 47.5594
rfoot 8.49808 10.6411
rtoes -9.48113
lfemur -44.5317 -23.7391 3.43474
ltibia 36.4448
lfoot 1.51946 -15.5786
ltoes 28.4548
3685
root 11.5055 17.1102 2.41057 -862.556 79.636 199.894
lowerback 12.0919 -3.51768 -5.48235
upperback -4.33954 -6.03114 -5.43686
thorax -11.6113 -2.61706 -1.56469
lowerneck 5.01021 -0.601305 -9.94454
upperneck -8.44297 1.88904 29.8798
head -3.65771 0.395547 11.4667
rclavicle 4.21423e-014 6.67916e-014
rhumerus -26.6151 -2.7338 -1.83095
rradius 34.574
rwrist -8.84879
rhand 18.8695 16.906
rfingers 7.12502
rthumb 43.4806 -7.16794
lclavicle 4.21423e-014 6.67916e-014
lhumerus -22.4046 33.0123 11.7157
lradius 72.8235
lwrist -40.0132
lhand 18.0906 33.4896
lfingers 7.12502
lthumb 42.7524 57.8224
rfemur -42.2182 14.6824 24.4467
rtibia 47.7651
rfoot 8.18771 11.1549
rtoes -10.4838
lfemur -44.4623 -24.7769 4.4035
ltibia 35.8164
lfoot 2.83748 -15.8225
ltoes 31.132
3686
root 11.5029 17.1008 2.32533 -859.576 80.8441 202.961
lowerback 12.1454 -3.49747 -5.42166
upperback -4.34421 -6.00684 -5.48048
thorax -11.6607 -2.61181 -1.64796
lowerneck 5.07207 -0.580077 -9.55055
upperneck -8.38644 1.92876 29.787
head -3.66191 0.400859 11.3463
rclavicle 3.18055e-015 1.04958e-013
rhumerus -26.4072 -2.88415 -2.07132
rradius 34.7472
rwrist -8.4419
rhand 19.0471 17.337
rfingers 7.12502
rthumb 43.6463 -6.67648
lclavicle 3.18055e-015 1.04958e-013
lhumerus -22.2996 33.0229 11.6871
lradius 72.8312
lwrist -39.9777
lhand 18.1231 33.3682
lfingers 7.12502
lthumb 42.7828 57.6905
rfemur -42.3447 15.2221 24.0584
rtibia 48.0423
rfoot 8.05088 11.6185
rtoes -12.079
lfemur -44.3102 -25.4904 5.07088
ltibia 35.2061
lfoot 4.91898 -15.9691
ltoes 37.667
